<svg xmlns="http://www.w3.org/2000/svg" width="46" height="46" viewBox="0 0 46 46">
  <metadata><?xpacket begin="﻿" id="W5M0MpCehiHzreSzNTczkc9d"?>
<x:xmpmeta xmlns:x="adobe:ns:meta/" x:xmptk="Adobe XMP Core 5.6-c138 79.159824, 2016/09/14-01:09:01        ">
   <rdf:RDF xmlns:rdf="http://www.w3.org/1999/02/22-rdf-syntax-ns#">
      <rdf:Description rdf:about=""/>
   </rdf:RDF>
</x:xmpmeta>
                                                                                                    
                                                                                                    
                                                                                                    
                                                                                                    
                                                                                                    
                                                                                                    
                                                                                                    
                                                                                                    
                                                                                                    
                                                                                                    
                                                                                                    
                                                                                                    
                                                                                                    
                                                                                                    
                                                                                                    
                                                                                                    
                                                                                                    
                                                                                                    
                                                                                                    
                                                                                                    
                           
<?xpacket end="w"?></metadata>
<defs>
    <style>
      .cls-1 {
        fill: #e8663c;
        fill-rule: evenodd;
      }
    </style>
  </defs>
  <path id="icon" class="cls-1" d="M45.988,25.932V20.047l-4.915-.393a18.251,18.251,0,0,0-.753-2.82l4.058-2.8-2.942-5.1L36.98,11.06A18.569,18.569,0,0,0,34.919,9l2.118-4.456L31.941,1.6l-2.8,4.058a18.283,18.283,0,0,0-2.82-.752L25.93-.009H20.046L19.653,4.906a18.264,18.264,0,0,0-2.82.752L14.036,1.6,8.94,4.543,11.058,9A18.465,18.465,0,0,0,9,11.06L4.541,8.943,1.6,14.038l4.057,2.8A18.247,18.247,0,0,0,4.9,19.655l-4.916.393v5.884L4.9,26.326a18.223,18.223,0,0,0,.751,2.82L1.6,31.943l2.942,5.095L9,34.921a18.551,18.551,0,0,0,2.062,2.062L8.941,41.438l5.1,2.942,2.8-4.056a18.342,18.342,0,0,0,2.82.752l0.393,4.916h5.885l0.393-4.916a18.265,18.265,0,0,0,2.82-.752l2.8,4.057,5.1-2.942-2.118-4.456A18.5,18.5,0,0,0,36.98,34.92l4.456,2.118,2.942-5.1-4.057-2.8a18.345,18.345,0,0,0,.752-2.82Zm-23,8.558a11.5,11.5,0,1,1,11.5-11.5A11.5,11.5,0,0,1,22.988,34.491Z"/>
</svg>
